<svg width="87" height="87" viewBox="0 0 87 87" fill="none" xmlns="http://www.w3.org/2000/svg">
<g filter="url(#filter0_d_678_383)">
<circle cx="43.0996" cy="39.1001" r="37" fill="white"/>
</g>
<path d="M59.3516 31.5177H63.7713V27.1001H59.3516V31.5177Z" fill="#999999"/>
<path d="M34.0069 48.1903C33.8427 48.0456 33.6409 47.9328 33.402 47.8523C33.1627 47.7724 32.8905 47.7321 32.5848 47.7321H31.2676V51.0386H32.5653C32.8708 51.0386 33.1452 50.9967 33.3872 50.9136C33.6298 50.8299 33.8337 50.7144 33.9995 50.5661C34.1635 50.4207 34.2935 50.241 34.3803 50.0397C34.4682 49.8368 34.5116 49.6154 34.5116 49.3761V49.3665C34.5116 49.1271 34.4687 48.9073 34.383 48.7076C34.2977 48.5093 34.1692 48.3325 34.0069 48.1903ZM33.5456 49.3904C33.5456 49.6578 33.4593 49.8638 33.286 50.0089C33.1134 50.1536 32.8846 50.2261 32.6007 50.2261H32.2142V48.5445H32.6007C32.8845 48.5445 33.1134 48.6177 33.2861 48.7643C33.4592 48.9105 33.5456 49.116 33.5456 49.3808V49.3904ZM36.1461 41.9603H29.6856C29.0751 41.9603 28.5077 41.7304 28.0889 41.3141C27.662 40.8925 27.43 40.241 27.43 39.6436V39.2199C27.43 38.6321 27.6604 38.0791 28.0798 37.6639C28.2866 37.4578 28.5319 37.2946 28.8018 37.1834C29.0718 37.0723 29.3609 37.0155 29.6528 37.0162H36.1461V32.6123H30.7527C28.4754 32.6271 22.4287 32.7854 22.4287 39.4921C22.4287 46.1979 28.5004 46.2338 30.7851 46.2497L36.1461 46.2513V41.9603ZM23.2544 51.0385H24.2056V47.732H23.2544V51.0385ZM28.3806 49.4798L26.9724 47.732H26.0874V51.0385H27.019V49.2244L28.4813 51.0385H29.3123V47.732H28.3806V49.4798ZM38.1979 49.5931C38.1979 49.8262 38.1412 49.9977 38.0284 50.1079C37.9156 50.2181 37.7641 50.2731 37.5735 50.2731C37.3833 50.2731 37.2313 50.216 37.1185 50.101C37.0057 49.9861 36.949 49.8087 36.949 49.5692V47.732H35.9829V49.5884C35.9829 49.8468 36.0195 50.0708 36.0931 50.2614C36.1662 50.4522 36.2711 50.6095 36.4077 50.734C36.5438 50.8583 36.7096 50.9505 36.905 51.0104C37.1005 51.0698 37.3197 51.1 37.5638 51.1C37.8075 51.1 38.0278 51.0698 38.2248 51.0104C38.4213 50.9505 38.5892 50.8584 38.7275 50.734C38.8657 50.6095 38.9727 50.45 39.0495 50.2567C39.1258 50.0629 39.1638 49.8325 39.1638 49.565V47.732H38.1979V49.5931ZM62.0904 47.732H61.144V51.0385H63.7444V50.2356H62.0904V47.732ZM57.8031 47.7082L56.3492 51.0384H57.3444L57.588 50.4479H58.9057L59.1541 51.0385H60.1695L58.7151 47.7082H57.8031ZM57.8661 49.7398L58.2516 48.7997L58.6325 49.7397L57.8661 49.7398ZM54.1068 51.0385H55.058V47.732H54.1068V51.0385ZM59.3512 32.6228V37.1755H53.458V32.6123H49.0377V40.4767C48.3131 39.5382 44.2107 34.7128 43.8024 34.2388C43.3946 33.7652 42.7574 33.1404 42.168 32.911C41.58 32.6801 40.8682 32.6123 40.2354 32.6123H37.2614V46.2512H41.6711V38.5844C42.4323 39.4556 46.9462 44.4908 46.9462 44.4908C47.6267 45.3175 48.5547 45.8223 49.0944 46.006C49.7199 46.2194 50.1346 46.2513 50.7939 46.2513H53.4579V41.4655H59.3511V46.2513H63.7482V32.6229L59.3512 32.6228ZM43.3213 49.3268C43.2106 49.2484 43.0768 49.1817 42.9188 49.1265C42.761 49.0716 42.5846 49.0239 42.3898 48.9831C42.2919 48.9626 42.1949 48.9382 42.0989 48.91C42.0227 48.8862 41.9624 48.8628 41.9189 48.839C41.8744 48.8157 41.8437 48.7897 41.8257 48.7612C41.8076 48.7314 41.7984 48.697 41.7992 48.6622V48.6531C41.7992 48.5933 41.8273 48.543 41.8845 48.5021C41.9416 48.4614 42.027 48.4407 42.1408 48.4407C42.2934 48.4407 42.4523 48.4683 42.6164 48.5233C42.7806 48.5784 42.9405 48.6594 43.0968 48.7664L43.5703 48.1172C43.3839 47.9714 43.1732 47.8597 42.9479 47.7872C42.7187 47.7125 42.4575 47.6755 42.1652 47.6755C41.9602 47.6755 41.7765 47.7013 41.6138 47.7533C41.4512 47.8052 41.3119 47.8783 41.1965 47.9726C41.081 48.0669 40.9932 48.1781 40.9333 48.3073C40.8729 48.4365 40.8427 48.5774 40.8427 48.7315V48.7411C40.8427 48.9105 40.876 49.053 40.9428 49.1679C41.0095 49.2828 41.1007 49.3782 41.2161 49.4555C41.3315 49.5323 41.4671 49.5954 41.6234 49.644C41.7796 49.6928 41.9485 49.7373 42.1307 49.7786C42.2478 49.8034 42.3431 49.8279 42.4163 49.8516C42.4893 49.875 42.5481 49.8993 42.5921 49.9248C42.6361 49.9497 42.6656 49.9756 42.682 50.0026C42.6985 50.0291 42.7065 50.0598 42.7065 50.0942V50.1037C42.7065 50.1763 42.6731 50.232 42.6064 50.2711C42.5396 50.3104 42.4433 50.3299 42.3161 50.3299C41.9194 50.3299 41.5502 50.198 41.2087 49.9333L40.6817 50.5438C40.893 50.7277 41.1366 50.8654 41.4116 50.9575C41.6859 51.0491 41.9761 51.0953 42.2822 51.0953C42.4903 51.0953 42.6789 51.0709 42.8484 51.0221C43.0174 50.9734 43.1619 50.9024 43.2822 50.8097C43.4 50.7201 43.496 50.6049 43.563 50.4729C43.6296 50.3411 43.663 50.1901 43.663 50.02V50.0105C43.663 49.857 43.6333 49.724 43.575 49.6123C43.5168 49.5006 43.432 49.4057 43.3213 49.3268ZM52.1847 49.5032C52.3118 49.3364 52.3749 49.1255 52.3749 48.8702V48.8612C52.3749 48.5366 52.2743 48.2797 52.0724 48.0912C51.9585 47.9778 51.8107 47.8894 51.6285 47.8263C51.4464 47.7639 51.2234 47.7321 50.9602 47.7321H49.3453V51.0386H50.2918V50.037H50.7065L51.3945 51.0386H52.4871L51.6725 49.8861C51.887 49.7982 52.0581 49.6706 52.1847 49.5032ZM51.4236 48.9275C51.4236 49.0472 51.3797 49.1419 51.2918 49.213C51.2042 49.2839 51.0788 49.3193 50.9162 49.3193H50.2918V48.5255H50.9115C51.0709 48.5255 51.1959 48.5583 51.2869 48.6224C51.378 48.687 51.4236 48.7854 51.4236 48.9179V48.9275ZM44.9849 48.535H46.0092V51.0386H46.9557V48.535H47.9805V47.7321H44.9849V48.535Z" fill="#231F20"/>
<defs>
<filter id="filter0_d_678_383" x="-0.00039053" y="9.77516e-05" width="86.2" height="86.2" filterUnits="userSpaceOnUse" color-interpolation-filters="sRGB">
<feFlood flood-opacity="0" result="BackgroundImageFix"/>
<feColorMatrix in="SourceAlpha" type="matrix" values="0 0 0 0 0 0 0 0 0 0 0 0 0 0 0 0 0 0 127 0" result="hardAlpha"/>
<feOffset dy="4"/>
<feGaussianBlur stdDeviation="3.05"/>
<feComposite in2="hardAlpha" operator="out"/>
<feColorMatrix type="matrix" values="0 0 0 0 0 0 0 0 0 0 0 0 0 0 0 0 0 0 0.1 0"/>
<feBlend mode="normal" in2="BackgroundImageFix" result="effect1_dropShadow_678_383"/>
<feBlend mode="normal" in="SourceGraphic" in2="effect1_dropShadow_678_383" result="shape"/>
</filter>
</defs>
</svg>
