<svg width="89" height="89" viewBox="0 0 89 89" fill="none" xmlns="http://www.w3.org/2000/svg">
<g filter="url(#filter0_d_678_380)">
<circle cx="44.0996" cy="40.1001" r="38" fill="white"/>
</g>
<path d="M63.8898 39.7307C63.8774 39.706 63.8526 39.6937 63.8352 39.6715C63.8054 39.6369 63.7831 39.5974 63.7434 39.5703L54.628 33.4743L63.7459 27.2945C63.8749 27.2081 63.9518 27.0625 63.9518 26.907C63.9518 26.7515 63.8749 26.6059 63.7459 26.5195L44.5351 13.4787C44.3738 13.3701 44.1629 13.3701 44.0041 13.4787L24.7934 26.522C24.7462 26.5541 24.7115 26.601 24.6792 26.6479C24.6718 26.6602 24.6594 26.6651 24.6519 26.6775C24.6123 26.7466 24.585 26.8256 24.585 26.9095V52.9986C24.585 53.1541 24.6619 53.2997 24.7909 53.3861L44.0017 66.4344C44.0017 66.4344 44.0215 66.4368 44.0314 66.4443C44.0389 66.4492 44.0414 66.4566 44.0488 66.4591C44.1034 66.4887 44.1629 66.4961 44.2225 66.501C44.2398 66.501 44.2523 66.5158 44.2696 66.5158C44.3441 66.5158 44.421 66.4986 44.4904 66.4615C44.5004 66.4566 44.5053 66.4443 44.5152 66.4368C44.5227 66.4319 44.5301 66.4369 44.5351 66.4294L63.7459 53.3861C63.8749 53.2973 63.9518 53.1541 63.9518 52.9986V39.9553C63.9518 39.8738 63.927 39.7949 63.8873 39.7258L63.8898 39.7307ZM35.2138 33.731L44.2696 27.5832L52.9508 33.4793L44.0066 39.5653C43.9769 39.5851 43.9595 39.6172 43.9372 39.6443C43.9099 39.6715 43.8801 39.6937 43.8627 39.7282C43.8429 39.7653 43.8404 39.8072 43.8305 39.8467C43.8206 39.8837 43.8007 39.9158 43.8007 39.9528V52.0139L35.2163 46.1845V33.731H35.2138ZM52.9955 46.456L44.7435 52.0164V40.8438L52.9955 46.456ZM53.8341 45.8908L45.1082 39.9553L53.7869 34.0469L62.6344 39.9627L53.8316 45.8908H53.8341ZM44.2696 14.4362L62.6418 26.907L53.7869 32.9092L44.5351 26.6257C44.3738 26.5171 44.1629 26.5171 44.0041 26.6257L34.7399 32.9166L25.8999 26.9119L44.2721 14.4362H44.2696ZM25.5327 27.8054L34.2685 33.7359V46.4313C34.2685 46.5868 34.3454 46.7324 34.4744 46.8188L43.7957 53.1492V65.1609L25.5302 52.7543V27.8029L25.5327 27.8054ZM63.009 52.7568L44.7435 65.1609V53.1541L45.0685 52.9345L63.009 40.8462V52.7568Z" fill="#06203C"/>
<defs>
<filter id="filter0_d_678_380" x="-0.00039053" y="9.77516e-05" width="88.2" height="88.2" filterUnits="userSpaceOnUse" color-interpolation-filters="sRGB">
<feFlood flood-opacity="0" result="BackgroundImageFix"/>
<feColorMatrix in="SourceAlpha" type="matrix" values="0 0 0 0 0 0 0 0 0 0 0 0 0 0 0 0 0 0 127 0" result="hardAlpha"/>
<feOffset dy="4"/>
<feGaussianBlur stdDeviation="3.05"/>
<feComposite in2="hardAlpha" operator="out"/>
<feColorMatrix type="matrix" values="0 0 0 0 0 0 0 0 0 0 0 0 0 0 0 0 0 0 0.1 0"/>
<feBlend mode="normal" in2="BackgroundImageFix" result="effect1_dropShadow_678_380"/>
<feBlend mode="normal" in="SourceGraphic" in2="effect1_dropShadow_678_380" result="shape"/>
</filter>
</defs>
</svg>
