<svg width="170" height="30" viewBox="0 0 170 30" fill="none" xmlns="http://www.w3.org/2000/svg">
<g clip-path="url(#clip0_412_3004)">
<mask id="mask0_412_3004" style="mask-type:luminance" maskUnits="userSpaceOnUse" x="40" y="1" width="131" height="29">
<path d="M40.9438 1.84082H170.069V29.659H40.9438V1.84082Z" fill="white"/>
</mask>
<g mask="url(#mask0_412_3004)">
<mask id="mask1_412_3004" style="mask-type:luminance" maskUnits="userSpaceOnUse" x="40" y="1" width="131" height="29">
<path d="M40.9438 1.84082H170.069V29.659H40.9438V1.84082Z" fill="white"/>
</mask>
<g mask="url(#mask1_412_3004)">
<path d="M109.76 7.29537H112.319V22.3635H109.76V7.29537ZM100.423 6.95446C98.7632 6.95446 97.2417 7.49991 95.9968 8.52264V7.29537H93.4378V22.3635H95.9968V13.8408C95.9968 11.3863 98.0025 9.47718 100.423 9.47718C102.844 9.47718 104.85 11.4545 104.85 13.8408V22.3635H107.408V13.8408C107.408 10.0226 104.296 6.95446 100.423 6.95446ZM88.3198 7.22718H90.8788V21.7499C90.8096 26.0454 87.2824 29.5226 82.9252 29.5908C79.4671 29.659 76.2856 27.409 75.3174 24.1363H78.0838C78.9829 25.9772 80.8503 27.1363 82.9252 27.0681C85.8991 26.9999 88.2506 24.6135 88.389 21.6817V20.4545C85.1384 23.3863 80.0895 23.2499 77.1156 20.0454C74.1416 16.8408 74.2799 11.8635 77.5305 8.93173C80.5737 6.13628 85.3458 6.13628 88.389 8.93173L88.3198 7.22718ZM88.3198 14.7954C88.3198 11.8635 85.8991 9.409 82.9252 9.409C79.9512 9.409 77.4614 11.7954 77.4614 14.7272C77.4614 17.659 79.882 20.1135 82.9252 20.1135C85.8991 20.1135 88.3198 17.7272 88.3198 14.7954ZM48.8975 9.409C50.9724 9.409 52.9089 10.6363 53.808 12.4772H56.5053C55.2604 8.31809 50.7649 5.93173 46.546 7.22718C42.3271 8.45446 39.9065 12.8863 41.2205 17.0454C42.5346 21.2045 46.961 23.5908 51.1799 22.2954C53.7388 21.5454 55.7445 19.5681 56.5053 17.0454H53.808C52.5631 19.7045 49.3125 20.8635 46.6152 19.6363C43.9179 18.409 42.7421 15.2045 43.987 12.5454C44.8861 10.6363 46.7535 9.409 48.8975 9.409ZM73.7266 14.7954C73.7266 19.159 70.1302 22.6363 65.773 22.6363C61.3467 22.6363 57.8194 19.0908 57.8194 14.7954C57.8194 10.4999 61.2775 6.95446 65.7039 6.95446C70.1302 6.95446 73.7266 10.4317 73.7266 14.7954ZM71.1676 14.7954C71.1676 11.8635 68.747 9.409 65.773 9.409C62.7991 9.409 60.3092 11.7954 60.3092 14.7272C60.3092 17.659 62.7299 20.1135 65.7039 20.1135C68.747 20.1135 71.1676 17.7272 71.1676 14.7954ZM154.508 6.95446C152.848 6.95446 151.326 7.49991 150.081 8.52264V7.29537H147.522V22.3635H150.081V13.8408C150.081 11.3863 152.087 9.409 154.508 9.409C156.998 9.409 159.003 11.3863 159.003 13.7726V22.2954H161.562V13.8408C161.493 10.0226 158.381 6.95446 154.508 6.95446ZM142.404 7.29537H144.963V22.3635H142.404V20.5908C139.154 23.5226 134.105 23.3863 131.131 20.1817C128.157 16.9772 128.295 11.9999 131.546 9.06809C132.998 7.70446 134.935 6.95446 136.941 6.95446C138.946 6.95446 140.883 7.70446 142.404 9.06809V7.29537ZM142.404 14.7954C142.404 11.8635 139.984 9.47718 136.941 9.47718C133.967 9.47718 131.546 11.8635 131.546 14.8635C131.546 17.7954 133.967 20.1817 136.941 20.1817C139.984 20.1135 142.404 17.7272 142.404 14.7954ZM170 9.74991V7.22718H166.196V3.13627H163.637V17.3181C163.637 20.1135 165.919 22.3635 168.755 22.3635H170V19.8408H168.755C167.372 19.8408 166.196 18.6817 166.196 17.3181V9.74991H170ZM111.005 1.84082C110.037 1.84082 109.345 2.59082 109.345 3.47718C109.345 4.43173 110.106 5.11355 111.005 5.11355C111.973 5.11355 112.665 4.36355 112.665 3.47718C112.734 2.59082 111.973 1.84082 111.005 1.84082C111.074 1.84082 111.074 1.84082 111.005 1.84082ZM127.604 7.29537H114.878V9.81809H124.284L114.878 19.8408V22.3635H127.604V19.8408H118.129L127.535 9.81809L127.604 7.29537Z" fill="white"/>
</g>
</g>
<mask id="mask2_412_3004" style="mask-type:luminance" maskUnits="userSpaceOnUse" x="0" y="0" width="37" height="30">
<path d="M0 0H36.0334V30H0V0Z" fill="white"/>
</mask>
<g mask="url(#mask2_412_3004)">
<mask id="mask3_412_3004" style="mask-type:luminance" maskUnits="userSpaceOnUse" x="0" y="15" width="22" height="15">
<path d="M0 15L10.5818 30L21.5094 23.5227L15.3539 15H0Z" fill="white"/>
</mask>
<g mask="url(#mask3_412_3004)">
<path d="M0 15H21.5094V30H0V15Z" fill="url(#paint0_linear_412_3004)"/>
</g>
<mask id="mask4_412_3004" style="mask-type:luminance" maskUnits="userSpaceOnUse" x="10" y="15" width="27" height="15">
<path d="M10.5818 30H25.6591L36.0334 15L10.5818 30Z" fill="white"/>
</mask>
<g mask="url(#mask4_412_3004)">
<path d="M10.5818 15H36.0334V30H10.5818V15Z" fill="url(#paint1_linear_412_3004)"/>
</g>
<mask id="mask5_412_3004" style="mask-type:luminance" maskUnits="userSpaceOnUse" x="0" y="0" width="22" height="15">
<path d="M10.5818 0L0 15H15.3539L21.5094 6.47727L10.5818 0Z" fill="white"/>
</mask>
<g mask="url(#mask5_412_3004)">
<path d="M0 0H21.5094V15H0V0Z" fill="url(#paint2_linear_412_3004)"/>
</g>
<mask id="mask6_412_3004" style="mask-type:luminance" maskUnits="userSpaceOnUse" x="10" y="0" width="27" height="15">
<path d="M10.5818 0L36.0334 15L25.6591 0H10.5818Z" fill="white"/>
</mask>
<g mask="url(#mask6_412_3004)">
<path d="M10.5818 0H36.0334V15H10.5818V0Z" fill="url(#paint3_linear_412_3004)"/>
</g>
</g>
</g>
<defs>
<linearGradient id="paint0_linear_412_3004" x1="0.00508098" y1="22.4831" x2="21.5189" y2="22.4831" gradientUnits="userSpaceOnUse">
<stop stop-color="#3D54CE"/>
<stop offset="1" stop-color="#35CACF"/>
</linearGradient>
<linearGradient id="paint1_linear_412_3004" x1="10.5767" y1="22.4831" x2="36.0612" y2="22.4831" gradientUnits="userSpaceOnUse">
<stop stop-color="#13457D"/>
<stop offset="1" stop-color="#279698"/>
</linearGradient>
<linearGradient id="paint2_linear_412_3004" x1="-0.00349157" y1="7.4887" x2="21.5277" y2="7.4887" gradientUnits="userSpaceOnUse">
<stop stop-color="#090086"/>
<stop offset="1" stop-color="#2F96A9"/>
</linearGradient>
<linearGradient id="paint3_linear_412_3004" x1="10.5767" y1="7.4887" x2="36.0612" y2="7.4887" gradientUnits="userSpaceOnUse">
<stop stop-color="#3B62CA"/>
<stop offset="1" stop-color="#93DFE3"/>
</linearGradient>
<clipPath id="clip0_412_3004">
<rect width="170" height="30" fill="white"/>
</clipPath>
</defs>
</svg>
