<svg width="188" height="46" viewBox="0 0 188 46" fill="none" xmlns="http://www.w3.org/2000/svg">
<g clip-path="url(#clip0_412_2944)">
<path d="M73.435 13.0523V12.2801L73.1102 12.0596H60.1213L59.9048 12.2801V13.0523L60.1213 13.2728H65.6415L65.8579 13.4933V29.5976L66.0744 29.8181H67.0486L67.265 29.5976V13.6035L67.4815 13.383H73.1101L73.435 13.0523ZM76.359 16.9143C72.8954 16.9143 70.8349 19.4486 70.8349 23.0885V23.6436C70.8349 27.1735 72.5681 30.2588 76.5731 30.2588C80.0367 30.2588 81.336 27.9428 81.5526 26.3986L81.3388 26.1807H80.3612L80.1474 26.3986C79.6062 27.9429 78.6285 28.9358 76.68 28.9358C73.4327 28.9358 72.4594 25.8468 72.4594 24.3026L72.6783 24.0847H81.6595L81.8784 23.8616V23.0885C81.8784 19.4486 79.9311 16.9143 76.359 16.9143ZM76.359 18.2373C77.8744 18.2373 78.873 18.8715 79.4953 19.7264C80.1177 20.5813 80.3608 21.6562 80.3608 22.5386L80.147 22.7617H72.5711L72.3522 22.5386C72.3522 21.6562 72.5953 20.5813 73.2177 19.7264C73.8401 18.8715 74.8436 18.2373 76.359 18.2373ZM84.3672 23.5312C84.3672 20.0015 86.099 18.1263 88.5886 18.1263C91.0782 18.1263 92.0523 19.6705 92.3771 21.2147L92.5936 21.4352H93.676L93.8925 21.2147C93.676 18.6778 91.6194 16.9131 88.5886 16.9131C85.3413 16.9131 82.8518 19.0088 82.8518 23.5312C82.8518 28.1641 85.3414 30.1495 88.5886 30.1495C91.6193 30.1495 93.5676 28.3845 93.8925 25.8476L93.676 25.6271H92.7018L92.4854 25.8476C92.2689 27.3918 91.1865 28.936 88.6969 28.936C86.2073 28.936 84.3672 27.1713 84.3672 23.5312ZM106.015 29.7083V21.987C106.015 18.6778 104.284 16.9131 101.469 16.9131C99.7376 16.9131 98.2221 17.6851 97.4646 19.0088H97.2481V12.3904L96.9234 12.0597H95.9492L95.7327 12.2802V29.7083L95.9492 29.9288H96.9234L97.1398 29.7083V22.7592C97.1398 19.8913 98.4387 18.1263 101.145 18.1263C103.201 18.1263 104.392 19.45 104.392 21.987V29.7083L104.608 29.9288H105.583L106.015 29.7083ZM118.788 29.7083V21.987C118.788 18.6778 117.056 16.9131 114.242 16.9131C112.51 16.9131 110.995 17.6851 110.237 19.0088H110.021L109.804 17.4646L109.588 17.2441H108.83L108.614 17.4646V29.7083L108.83 29.9288H109.804L110.021 29.7083V22.7592C110.021 19.8913 111.32 18.1263 114.026 18.1263C116.082 18.1263 117.273 19.45 117.273 21.987V29.7083L117.489 29.9288H118.572L118.788 29.7083ZM126.041 17.0233C122.794 17.0233 120.303 19.3421 120.303 23.6438C120.303 27.9457 122.794 30.259 126.041 30.259C129.289 30.259 131.779 27.9456 131.779 23.6438C131.779 19.3422 129.289 17.0233 126.041 17.0233ZM126.041 18.2374C127.286 18.2374 128.342 18.7629 129.086 19.7006C129.83 20.6382 130.262 21.9893 130.262 23.6438C130.262 25.2984 129.83 26.6494 129.086 27.5871C128.342 28.5247 127.286 29.0451 126.041 29.0451C124.796 29.0451 123.741 28.5247 122.996 27.5871C122.252 26.6495 121.82 25.2985 121.82 23.6438C121.82 21.9341 122.252 20.583 122.996 19.6591C123.741 18.7353 124.796 18.2374 126.041 18.2374ZM135.133 29.7084V12.2803L134.808 12.0598H133.834L133.617 12.2803V29.7084L133.834 29.9288H134.808L135.133 29.7084ZM142.604 17.0234C139.356 17.0234 136.866 19.3422 136.866 23.6439C136.866 27.9458 139.356 30.259 142.604 30.259C145.851 30.259 148.337 27.9457 148.337 23.6439C148.337 19.3422 145.851 17.0234 142.604 17.0234ZM142.604 18.2375C143.848 18.2375 144.899 18.763 145.643 19.7006C146.387 20.6382 146.824 21.9894 146.824 23.6439C146.824 25.2985 146.387 26.6494 145.643 27.5872C144.899 28.5248 143.848 29.0451 142.604 29.0451C141.359 29.0451 140.303 28.5248 139.559 27.5872C138.811 26.6494 138.373 25.2984 138.373 23.6436C138.373 21.9339 138.81 20.5828 139.554 19.6589C140.298 18.7351 141.354 18.2373 142.599 18.2373L142.604 18.2375ZM154.94 16.9144C151.476 16.9144 149.635 19.7795 149.635 23.5296C149.635 27.3903 151.368 30.1501 154.94 30.1501C157.213 30.1501 158.406 29.1572 158.947 28.054V28.1629C158.947 31.4718 158.19 34.0104 155.159 34.0104C152.886 34.0104 152.127 33.02 151.911 31.6963L151.692 31.4732H150.719L150.5 31.6963C150.717 33.792 152.235 35.2244 155.266 35.2244C158.513 35.2244 160.571 33.1281 160.571 28.054V17.4645L160.352 17.2466H159.594L159.38 17.4645L159.161 19.0107H158.947C158.406 18.0179 157.213 16.9144 154.94 16.9144ZM154.94 18.1285C156.185 18.1285 157.188 18.5657 157.878 19.4619C158.568 20.3582 158.947 21.7097 158.947 23.5295C158.947 25.3496 158.568 26.7011 157.878 27.5971C157.188 28.4933 156.185 28.9358 154.94 28.9358C153.695 28.9358 152.692 28.4934 152.002 27.5971C151.312 26.701 150.938 25.3495 150.938 23.5295C150.938 21.7647 151.312 20.4132 152.002 19.5034C152.692 18.5934 153.695 18.1285 154.94 18.1285ZM164.466 14.9277V13.3833L164.25 13.1628H163.275L162.951 13.3833V14.9277L163.167 15.1482H164.141L164.466 14.9277ZM164.466 29.7084V17.4647L164.25 17.2442H163.275L162.951 17.4647V29.7084L163.167 29.9289H164.141L164.466 29.7084ZM171.717 16.9145C168.253 16.9145 166.197 19.4489 166.197 23.0887V23.6439C166.197 27.1738 167.93 30.259 171.935 30.259C175.399 30.259 176.698 27.943 176.915 26.3989L176.696 26.181H175.724L175.505 26.3989C174.963 27.9431 173.991 28.936 172.043 28.936C168.795 28.936 167.822 25.8471 167.822 24.3029L168.041 24.085H177.022L177.241 23.8619V23.0888C177.241 19.5591 175.18 16.9145 171.717 16.9145ZM171.717 18.2376C173.232 18.2376 174.236 18.8718 174.858 19.7267C175.48 20.5815 175.724 21.6564 175.724 22.5388L175.505 22.7619H167.929L167.715 22.5388C167.715 21.6565 167.958 20.5816 168.58 19.7267C169.203 18.8718 170.201 18.2376 171.717 18.2376ZM187.846 26.6198C187.846 24.3036 186.547 23.3109 184.058 22.7594C181.568 22.2077 180.053 21.9872 180.053 20.2222C180.053 18.8988 181.027 18.1265 182.867 18.1265C185.14 18.1265 185.898 19.1193 185.898 20.443L186.114 20.6635H187.088L187.305 20.443C187.305 17.9061 185.248 16.9133 182.759 16.9133C179.944 16.9133 178.537 18.4575 178.537 20.2222C178.537 22.3182 180.053 23.3109 182.542 23.7522C185.032 24.3036 186.331 24.5241 186.331 26.6198C186.331 27.9435 185.573 28.9363 183.083 28.9363C180.81 28.9363 179.836 27.6126 179.836 26.0683L179.619 25.8479H178.645L178.429 26.0683C178.429 28.3848 180.16 30.1498 183.191 30.1498C186.33 30.2613 187.846 28.7158 187.846 26.6198Z" fill="white"/>
<path d="M59.7961 26.1662V29.8181H48.5334V11.8191H52.6289V26.1654L59.7961 26.1662ZM25.7485 10.7756L15.7691 18.6051C14.7452 14.6921 11.4181 11.8186 7.32254 11.8186H0.153809V29.8173H7.32254C11.4181 29.8173 15.0012 26.9488 15.7691 23.0361L25.7483 30.8602L35.7326 23.0361V29.8173H46.9948V26.1646H39.5766V11.8186H35.4779V18.5998L26.0079 26.4292L23.9611 24.6029L28.5689 20.9502L33.4333 17.038L30.6179 14.6929L21.1466 22.2524L19.1 20.4261L28.5689 13.1208L25.7544 10.7756H25.7485ZM3.99286 15.4712H7.0629C7.70285 15.4712 8.33007 15.6173 8.906 15.8863C9.48195 16.1553 10.0109 16.549 10.4589 17.0381C10.9068 17.5272 11.2721 18.1108 11.5281 18.771C11.7841 19.4313 11.9252 20.1676 11.9252 20.9502C11.9252 21.6675 11.7997 22.3671 11.5637 23.0152C11.3275 23.6633 10.9825 24.2581 10.5505 24.7637C10.1186 25.2689 9.60076 25.683 9.01293 25.9726C8.42509 26.2619 7.76674 26.424 7.0629 26.424H3.99286V15.4712Z" fill="white"/>
</g>
<defs>
<clipPath id="clip0_412_2944">
<rect width="188" height="46" fill="white"/>
</clipPath>
</defs>
</svg>
