<svg width="468" height="60" viewBox="0 0 468 60" fill="none" xmlns="http://www.w3.org/2000/svg">
<path d="M182.675 5.5869V3.69174L181.865 3.15063H149.486L148.947 3.69174V5.5869L149.486 6.12801H163.247L163.787 6.66911V46.1912L164.326 46.7323H166.755L167.294 46.1912V6.93966L167.834 6.39856H181.865L182.675 5.5869ZM189.964 15.0647C181.329 15.0647 176.193 21.2843 176.193 30.2169V31.5793C176.193 40.2422 180.514 47.8137 190.497 47.8137C199.131 47.8137 202.37 42.13 202.91 38.3405L202.377 37.8057H199.94L199.407 38.3405C198.058 42.1302 195.621 44.567 190.764 44.567C182.669 44.567 180.243 36.9863 180.243 33.1966L180.788 32.6618H203.177L203.722 32.1143V30.217C203.722 21.2843 198.868 15.0647 189.964 15.0647ZM189.964 18.3116C193.741 18.3116 196.23 19.868 197.782 21.966C199.333 24.064 199.939 26.7019 199.939 28.8674L199.406 29.4149H180.521L179.975 28.8674C179.975 26.702 180.582 24.0641 182.133 21.966C183.684 19.8681 186.186 18.3116 189.964 18.3116ZM209.926 31.3033C209.926 22.6411 214.243 18.0391 220.449 18.0391C226.655 18.0391 229.084 21.8288 229.893 25.6185L230.433 26.1596H233.131L233.671 25.6185C233.131 19.3925 228.004 15.0618 220.449 15.0618C212.355 15.0618 206.149 20.2048 206.149 31.3033C206.149 42.673 212.355 47.5456 220.449 47.5456C228.004 47.5456 232.861 43.2141 233.671 36.9882L233.131 36.4471H230.703L230.163 36.9882C229.623 40.7779 226.925 44.5675 220.719 44.5675C214.513 44.5675 209.926 40.2368 209.926 31.3033ZM263.891 46.4627V27.5137C263.891 19.3925 259.574 15.0618 252.558 15.0618C248.241 15.0618 244.464 16.9563 242.575 20.2048H242.036V3.96262L241.226 3.15096H238.798L238.258 3.69206V46.4627L238.798 47.0038H241.226L241.766 46.4627V29.4088C241.766 22.3706 245.004 18.0391 251.749 18.0391C256.876 18.0391 259.844 21.2877 259.844 27.5137V46.4627L260.383 47.0038H262.812L263.891 46.4627ZM295.73 46.4627V27.5137C295.73 19.3925 291.413 15.0618 284.398 15.0618C280.081 15.0618 276.303 16.9563 274.415 20.2048H273.875L273.335 16.4152L272.796 15.8741H270.907L270.367 16.4152V46.4627L270.907 47.0038H273.335L273.875 46.4627V29.4088C273.875 22.3706 277.113 18.0391 283.858 18.0391C288.985 18.0391 291.953 21.2877 291.953 27.5137V46.4627L292.493 47.0038H295.191L295.73 46.4627ZM313.811 15.3323C305.716 15.3323 299.507 21.023 299.507 31.5798C299.507 42.1371 305.716 47.8142 313.811 47.8142C321.906 47.8142 328.115 42.1369 328.115 31.5798C328.115 21.023 321.906 15.3323 313.811 15.3323ZM313.811 18.3118C316.914 18.3118 319.545 19.6016 321.401 21.9025C323.256 24.2035 324.332 27.5195 324.332 31.5798C324.332 35.6404 323.256 38.9558 321.401 41.2571C319.546 43.558 316.914 44.8351 313.811 44.8351C310.708 44.8351 308.076 43.558 306.221 41.2571C304.366 38.9562 303.289 35.6406 303.289 31.5798C303.289 27.384 304.366 24.0683 306.221 21.8008C308.076 19.5338 310.708 18.3118 313.811 18.3118ZM336.473 46.4629V3.69226L335.664 3.15116H333.235L332.696 3.69226V46.4629L333.235 47.004H335.664L336.473 46.4629ZM355.097 15.3325C347.002 15.3325 340.793 21.0232 340.793 31.58C340.793 42.1373 347.002 47.8144 355.097 47.8144C363.192 47.8144 369.388 42.1371 369.388 31.58C369.388 21.0232 363.192 15.3325 355.097 15.3325ZM355.097 18.312C358.2 18.312 360.819 19.6017 362.674 21.9027C364.529 24.2037 365.619 27.5197 365.619 31.58C365.619 35.6406 364.529 38.956 362.674 41.2573C360.819 43.5582 358.2 44.8353 355.097 44.8353C351.994 44.8353 349.362 43.5582 347.507 41.2573C345.642 38.956 344.551 35.6402 344.551 31.5794C344.551 27.3835 345.64 24.0678 347.495 21.8004C349.35 19.5333 351.982 18.3115 355.085 18.3115L355.097 18.312ZM385.849 15.0651C377.215 15.0651 372.624 22.0962 372.624 31.2995C372.624 40.774 376.945 47.5469 385.849 47.5469C391.516 47.5469 394.489 45.1103 395.838 42.4028V42.6702C395.838 50.7907 393.95 57.0206 386.395 57.0206C380.729 57.0206 378.838 54.5901 378.298 51.3416L377.752 50.7941H375.328L374.782 51.3416C375.322 56.4847 379.107 59.9999 386.662 59.9999C394.756 59.9999 399.887 54.8554 399.887 42.403V16.415L399.341 15.8802H397.45L396.917 16.415L396.371 20.2095H395.838C394.489 17.7732 391.515 15.0651 385.849 15.0651ZM385.849 18.0446C388.952 18.0446 391.452 19.1176 393.173 21.317C394.893 23.5165 395.838 26.8333 395.838 31.2994C395.838 35.7661 394.893 39.0828 393.173 41.2817C391.453 43.4811 388.953 44.5669 385.849 44.5669C382.746 44.5669 380.246 43.4812 378.526 41.2817C376.806 39.0824 375.873 35.7657 375.873 31.2994C375.873 26.9683 376.806 23.6515 378.526 21.4187C380.246 19.1854 382.746 18.0446 385.849 18.0446ZM409.595 10.1895V6.39915L409.056 5.85804H406.627L405.818 6.39915V10.1895L406.357 10.7306H408.786L409.595 10.1895ZM409.595 46.463V16.4154L409.056 15.8743H406.627L405.818 16.4154V46.463L406.357 47.0041H408.786L409.595 46.463ZM427.669 15.0653C419.035 15.0653 413.911 21.2848 413.911 30.2175V31.5799C413.911 40.2428 418.232 47.8143 428.215 47.8143C436.849 47.8143 440.088 42.1306 440.628 38.3411L440.082 37.8063H437.658L437.112 38.3411C435.763 42.1308 433.339 44.5675 428.482 44.5675C420.387 44.5675 417.961 36.9869 417.961 33.1972L418.507 32.6624H440.895L441.441 32.1149V30.2176C441.441 21.5554 436.303 15.0653 427.669 15.0653ZM427.669 18.3122C431.447 18.3122 433.949 19.8686 435.5 21.9666C437.052 24.0646 437.658 26.7025 437.658 28.868L437.112 29.4155H418.227L417.694 28.868C417.694 26.7026 418.3 24.0647 419.852 21.9666C421.403 19.8686 423.892 18.3122 427.669 18.3122ZM467.877 38.8833C467.877 33.1991 464.639 30.7628 458.433 29.4094C452.227 28.0553 448.45 27.5142 448.45 23.1828C448.45 19.9349 450.878 18.0397 455.465 18.0397C461.132 18.0397 463.02 20.476 463.02 23.7246L463.56 24.2657H465.988L466.528 23.7246C466.528 17.4986 461.401 15.0623 455.195 15.0623C448.18 15.0623 444.672 18.852 444.672 23.1828C444.672 28.3266 448.449 30.7628 454.655 31.8457C460.861 33.1991 464.099 33.7402 464.099 38.8833C464.099 42.1319 462.21 44.5681 456.004 44.5681C450.338 44.5681 447.909 41.3196 447.909 37.5299L447.369 36.9888H444.941L444.401 37.5299C444.401 43.2147 448.718 47.5462 456.273 47.5462C464.098 47.82 467.877 44.027 467.877 38.8833Z" fill="#808080"/>
<path d="M148.675 37.7703V46.7324H120.6V2.56079H130.809V37.7684L148.675 37.7703ZM63.8021 0L38.9256 19.2144C36.3731 9.61143 28.0795 2.55948 17.8701 2.55948H0V46.7305H17.8701C28.0795 46.7305 37.0113 39.6909 38.9256 30.0886L63.8015 49.29L88.6903 30.0886V46.7305H116.765V37.7664H98.2726V2.55948H88.0554V19.2014L64.4487 38.4157L59.3466 33.9337L70.8328 24.9696L82.9585 15.3686L75.9404 9.61339L52.3304 28.1654L47.2287 23.6834L70.8328 5.75526L63.8167 0H63.8021ZM9.56993 11.5236H17.2229C18.8181 11.5236 20.3817 11.882 21.8173 12.5422C23.253 13.2023 24.5717 14.1686 25.6883 15.3689C26.805 16.5692 27.7156 18.0013 28.3536 19.6217C28.9917 21.2421 29.3436 23.0491 29.3436 24.9696C29.3436 26.73 29.0307 28.4469 28.4425 30.0373C27.8537 31.628 26.9935 33.0877 25.9168 34.3283C24.84 35.5683 23.5492 36.5845 22.0839 37.2951C20.6185 38.0051 18.9774 38.4029 17.2229 38.4029H9.56993V11.5236Z" fill="#007DB8"/>
</svg>
