<svg width="104" height="60" viewBox="0 0 104 60" fill="none" xmlns="http://www.w3.org/2000/svg">
<path d="M92.0083 11.0441H103.022V0H92.0083V11.0441Z" fill="#A32428"/>
<path d="M28.8517 52.7256C28.4427 52.3641 27.9399 52.082 27.3445 51.8807C26.7481 51.681 26.0697 51.5803 25.3081 51.5803H22.0258V59.8465H25.2594C26.0208 59.8465 26.7045 59.7418 27.3076 59.534C27.912 59.3247 28.4201 59.0361 28.8334 58.6652C29.2421 58.3017 29.566 57.8525 29.7822 57.3493C30.0014 56.8421 30.1094 56.2886 30.1094 55.6903V55.6664C30.1094 55.0678 30.0026 54.5183 29.7889 54.0191C29.5765 53.5233 29.2563 53.0813 28.8517 52.7256ZM27.7024 55.726C27.7024 56.3945 27.4872 56.9095 27.0553 57.2724C26.6252 57.6339 26.0552 57.8153 25.3477 57.8153H24.3844V53.6113H25.3477C26.0549 53.6113 26.6252 53.7942 27.0556 54.1608C27.4869 54.5264 27.7024 55.0401 27.7024 55.7021V55.726ZM34.1825 37.1507H18.0836C16.5621 37.1507 15.1484 36.576 14.1046 35.5354C13.0408 34.4811 12.4627 32.8525 12.4627 31.359V30.2998C12.4627 28.8301 13.037 27.4478 14.082 26.4097C14.5973 25.8946 15.2087 25.4865 15.8813 25.2086C16.5539 24.9307 17.2745 24.7886 18.0019 24.7904H34.1825V13.7808H20.7427C15.0679 13.8177 0 14.2135 0 30.9803C0 47.7446 15.1301 47.8345 20.8235 47.8742L34.1825 47.8782V37.1507ZM2.05747 59.8462H4.42793V51.5801H2.05747V59.8462ZM14.8316 55.9494L11.3224 51.5801H9.11717V59.8462H11.4385V55.3111L15.0824 59.8462H17.1532V51.5801H14.8316V55.9494ZM39.2953 56.2327C39.2953 56.8154 39.1541 57.2442 38.873 57.5197C38.5919 57.7952 38.2144 57.9328 37.7394 57.9328C37.2654 57.9328 36.8868 57.7899 36.6056 57.5026C36.3245 57.2152 36.1833 56.7717 36.1833 56.1731V51.5801H33.7757V56.2209C33.7757 56.867 33.867 57.4271 34.0503 57.9036C34.2327 58.3804 34.494 58.7737 34.8343 59.0849C35.1736 59.3959 35.5867 59.6263 36.0737 59.776C36.5607 59.9245 37.1069 60 37.7154 60C38.3225 60 38.8715 59.9245 39.3625 59.776C39.8521 59.6263 40.2704 59.3961 40.615 59.0849C40.9596 58.7737 41.2262 58.3751 41.4175 57.8918C41.6076 57.4072 41.7024 56.8313 41.7024 56.1625V51.5801H39.2953V56.2327ZM98.8333 51.5801H96.4749V59.8462H102.955V57.839H98.8333V51.5801ZM88.1497 51.5205L84.5268 59.846H87.0066L87.6138 58.3698H90.8974L91.5163 59.8462H94.0465L90.4224 51.5205H88.1497ZM88.3067 56.5996L89.2675 54.2493L90.2165 56.5993L88.3067 56.5996ZM78.939 59.8462H81.3092V51.5801H78.939V59.8462ZM92.0076 13.8069V25.1887H77.3222V13.7808H66.3073V33.4418C64.5016 31.0956 54.2787 19.032 53.2613 17.8469C52.2451 16.6631 50.6573 15.1009 49.1884 14.5275C47.7233 13.9503 45.9495 13.7808 44.3726 13.7808H36.9617V47.878H47.9503V28.7109C49.847 30.889 61.0954 43.477 61.0954 43.477C62.7912 45.5439 65.1035 46.8057 66.4485 47.2651C68.0071 47.7985 69.0406 47.8782 70.6835 47.8782H77.3219V35.9138H92.0074V47.8782H102.964V13.8072L92.0076 13.8069ZM52.0625 55.567C51.7866 55.371 51.4531 55.2042 51.0593 55.0663C50.6663 54.9289 50.2267 54.8097 49.7412 54.7078C49.4973 54.6566 49.2555 54.5956 49.0164 54.5251C48.8266 54.4655 48.6761 54.4071 48.5677 54.3475C48.4569 54.2893 48.3804 54.2242 48.3355 54.153C48.2905 54.0784 48.2676 53.9925 48.2696 53.9054V53.8828C48.2696 53.7333 48.3395 53.6075 48.482 53.5053C48.6244 53.4035 48.8371 53.3519 49.1207 53.3519C49.5009 53.3519 49.8969 53.4208 50.306 53.5582C50.715 53.6961 51.1135 53.8986 51.503 54.1661L52.6829 52.543C52.2184 52.1786 51.6933 51.8993 51.1321 51.718C50.5608 51.5313 49.91 51.4387 49.1814 51.4387C48.6708 51.4387 48.2129 51.5033 47.8076 51.6332C47.4023 51.763 47.0552 51.9457 46.7676 52.1814C46.4799 52.4172 46.261 52.6952 46.1118 53.0182C45.9613 53.3413 45.8861 53.6935 45.8861 54.0788V54.1027C45.8861 54.5264 45.9691 54.8826 46.1353 55.1697C46.3016 55.457 46.5288 55.6956 46.8165 55.8888C47.1041 56.0808 47.442 56.2385 47.8314 56.36C48.2206 56.4821 48.6415 56.5933 49.0957 56.6964C49.3873 56.7586 49.6248 56.8197 49.8071 56.8791C49.9892 56.9375 50.1357 56.9984 50.2453 57.062C50.3549 57.1242 50.4286 57.1891 50.4695 57.2565C50.5106 57.3227 50.5304 57.3994 50.5304 57.4855V57.5094C50.5304 57.6908 50.4472 57.8299 50.2809 57.9278C50.1146 58.0259 49.8746 58.0747 49.5576 58.0747C48.569 58.0747 47.6491 57.7451 46.7979 57.0831L45.4848 58.6096C46.0115 59.0693 46.6184 59.4135 47.3035 59.6437C47.9872 59.8727 48.7104 59.9882 49.4731 59.9882C49.9917 59.9882 50.4617 59.9273 50.884 59.8052C51.3051 59.6835 51.6652 59.5061 51.9649 59.2744C52.2585 59.0502 52.4977 58.7623 52.6646 58.4322C52.8307 58.1026 52.9139 57.7252 52.9139 57.3V57.2764C52.9139 56.8924 52.8399 56.5601 52.6947 56.2808C52.5495 56.0015 52.3384 55.7642 52.0625 55.567ZM74.1492 56.008C74.4659 55.5909 74.6232 55.0638 74.6232 54.4255V54.4031C74.6232 53.5914 74.3724 52.9493 73.8693 52.4781C73.5857 52.1945 73.2173 51.9736 72.7633 51.8158C72.3094 51.6598 71.7537 51.5803 71.0979 51.5803H67.0737V59.8465H69.4324V57.3425H70.4656L72.18 59.8465H74.9028L72.8729 56.9651C73.4074 56.7455 73.8337 56.4265 74.1492 56.008ZM72.2527 54.5689C72.2527 54.868 72.1431 55.1048 71.9242 55.2824C71.706 55.4598 71.3935 55.5484 70.9883 55.5484H69.4324V53.5637H70.9765C71.3737 53.5637 71.6852 53.6457 71.9119 53.806C72.1391 53.9675 72.2527 54.2136 72.2527 54.5447V54.5689ZM56.208 53.5876H58.7605V59.8465H61.119V53.5876H63.6727V51.5803H56.208V53.5876Z" fill="#231F20"/>
</svg>
