<svg width="217" height="60" viewBox="0 0 217 60" fill="none" xmlns="http://www.w3.org/2000/svg">
<path fill-rule="evenodd" clip-rule="evenodd" d="M26.2594 0.00176882L0.000976562 0V6.17281L9.57174 6.17494V26.4293H16.6745L16.6724 6.17281L26.2594 6.17387V0.00176882Z" fill="#656262"/>
<path fill-rule="evenodd" clip-rule="evenodd" d="M97.6788 44.7939C97.6788 42.4821 95.8024 40.624 93.4976 40.624H84.2572C83.4497 40.624 83.046 41.0295 82.618 41.6729C82.5942 41.6959 79.8632 45.6527 79.8632 45.6527H88.7703C89.2772 45.6752 89.7557 45.8937 90.1056 46.2623C90.4555 46.631 90.6496 47.1212 90.6471 47.6302V59.9996H97.6788V44.7939ZM72.8315 33.5699H79.8627V59.9996H72.8315V33.5699ZM133.928 40.624H113.951V59.9991H121.029V45.6527H129.058C130.151 45.6527 131.055 46.534 131.055 47.6302V59.9991H138.11V44.7939C138.11 42.4821 136.232 40.624 133.928 40.624ZM33.7791 33.5699H0V60H7.00741V39.7426H14.5138C15.2265 39.7426 15.7964 40.3387 15.7964 41.0538V60H22.8281V41.0538C22.8275 40.8815 22.8609 40.7107 22.9263 40.5514C22.9918 40.3921 23.088 40.2474 23.2094 40.1255C23.3308 40.0037 23.4751 39.9071 23.6338 39.8414C23.7926 39.7757 23.9628 39.7421 24.1345 39.7426H29.6693C30.7382 39.7426 31.6171 40.6005 31.6171 41.6733V60H38.6249V38.4315C38.6262 37.7927 38.5017 37.1599 38.2586 36.5695C38.0155 35.9791 37.6586 35.4426 37.2083 34.991C36.758 34.5393 36.2232 34.1813 35.6347 33.9375C35.0461 33.6937 34.4154 33.569 33.7786 33.5704M102.311 46.9152V60H109.343V40.8397C109.343 40.8397 106.088 42.865 103.784 44.3186C102.905 44.8899 102.311 45.8437 102.311 46.9161M102.311 33.5465H109.343V38.4311L102.311 43.1016V33.5465ZM175.713 40.624C173.954 40.624 172.814 41.9824 172.814 43.4364V59.9991H179.893V47.6537C179.893 46.5579 180.677 45.6284 181.794 45.6284H187.043C187.803 45.5815 188.445 45.1287 188.849 44.5321C188.872 44.5083 191.603 40.624 191.603 40.624H175.713ZM161.128 33.5699V55.1623H150.936C150.224 55.1623 149.724 54.5419 149.724 54.0179V47.6307H149.749C149.748 47.3707 149.799 47.1132 149.898 46.873C149.997 46.6327 150.142 46.4144 150.325 46.2306C150.508 46.0468 150.726 45.9012 150.965 45.8021C151.205 45.703 151.462 45.6524 151.721 45.6531H156.875C157.635 45.6531 158.419 45.2003 158.751 44.6763L161.127 40.6244H146.828C144.546 40.6244 142.67 42.4825 142.67 44.7944V56.5199C142.67 58.7601 144.451 60 146.09 60H168.183V33.5699H161.128ZM212.247 40.624H195.998C195.191 40.624 194.456 41.0047 194.004 41.6255L191.272 45.6527H207.639C208.66 45.7 209.491 46.5822 209.491 47.6302L209.467 55.3277H197.211V53.1113C197.211 52.6833 197.566 52.3247 197.994 52.3247H206.57V49.4658C206.57 48.7747 206.143 48.3926 205.548 48.3926H193.67C192.198 48.3926 191.034 49.56 191.034 51.0149V58.0446C191.034 58.0919 191.034 58.1167 191.058 58.1644C191.224 59.2116 192.128 59.9987 193.22 59.9987H216.404V44.7935C216.406 44.2454 216.299 43.7025 216.091 43.1959C215.882 42.6892 215.576 42.2289 215.19 41.8414C214.804 41.4539 214.345 41.1468 213.84 40.9378C213.335 40.7288 212.793 40.622 212.247 40.6235M64.3035 40.624H48.0553C47.2716 40.624 46.5117 41.0047 46.0841 41.6255L43.328 45.6527H59.6952C60.7169 45.7 61.5482 46.5822 61.5482 47.6302V55.3277H49.2669V53.1113C49.2669 52.6833 49.6231 52.3247 50.0506 52.3247H58.6259V49.4658C58.6259 48.7747 58.1988 48.3926 57.6046 48.3926H45.7271C44.2549 48.3926 43.0913 49.56 43.0913 51.0149V58.0446C43.0913 58.0919 43.0913 58.1167 43.1146 58.1644C43.1976 58.6786 43.461 59.146 43.8574 59.4824C44.2538 59.8188 44.757 60.0019 45.2762 59.9987H68.4608V44.7935C68.4622 44.2454 68.3556 43.7025 68.1472 43.1959C67.9388 42.6892 67.6326 42.2289 67.2462 41.8414C66.8599 41.4539 66.401 41.1468 65.896 40.9378C65.391 40.7288 64.8498 40.6224 64.3035 40.624Z" fill="#E51635"/>
<path fill-rule="evenodd" clip-rule="evenodd" d="M109.343 11.5548C109.343 9.24343 107.465 7.38484 105.162 7.38484H95.6788C94.8704 7.38484 94.4666 7.78946 94.0391 8.43287C94.0157 8.4563 91.2834 12.4127 91.2834 12.4127H100.434C100.941 12.4354 101.419 12.654 101.769 13.0227C102.119 13.3914 102.313 13.8816 102.311 14.3907V26.76H109.343V11.603V11.5548ZM84.2522 0.330364H91.2834V26.7596H84.2522V0.330364ZM64.7378 19.7533H64.7616C64.7616 20.0139 64.813 20.2719 64.9127 20.5126C65.0124 20.7532 65.1585 20.9717 65.3427 21.1555C65.5268 21.3393 65.7454 21.4848 65.9857 21.5836C66.2261 21.6824 66.4836 21.7326 66.7434 21.7313L79.881 21.7304V26.7596H61.8252C59.5332 26.7596 57.6476 24.9005 57.6476 22.5891V8.24979V11.2245C57.6476 8.9131 59.5336 7.05364 61.8252 7.05364H79.8387L78.7302 9.81785C78.4957 10.4007 78.374 10.8959 77.8407 11.2723C77.4599 11.5416 77.1377 11.7291 76.6475 11.7291H66.7434C66.4836 11.7278 66.2262 11.7781 65.9858 11.877C65.7455 11.9759 65.527 12.1214 65.3429 12.3052C65.1588 12.4891 65.0128 12.7076 64.9131 12.9482C64.8134 13.1889 64.7621 13.4469 64.7621 13.7075H64.7383V19.7533M33.1878 26.5168H48.2313C49.0146 26.5168 49.7745 26.1352 50.2025 25.5161L52.9582 21.4881H37.7965C36.7756 21.4407 35.9435 20.5585 35.9435 19.5101V11.8126H47.0201V14.029C47.0201 14.4579 46.6635 14.8152 46.2355 14.8152H38.8662V17.6754C38.8662 18.3661 39.2938 18.7473 39.8875 18.7473H50.5591C52.0317 18.7473 53.1958 17.5803 53.1958 16.1263V9.09529C53.1958 9.04797 53.1958 9.02454 53.172 8.97678C53.0894 8.46246 52.8261 7.99474 52.4297 7.65816C52.0334 7.32159 51.5301 7.13838 51.0108 7.14163H29.0313V22.3464C29.0299 22.8944 29.1364 23.4373 29.3448 23.9439C29.5532 24.4505 29.8593 24.9109 30.2455 25.2984C30.6317 25.686 31.0905 25.9932 31.5954 26.2023C32.1003 26.4115 32.6415 26.5185 33.1878 26.5172" fill="#656262"/>
</svg>
