<svg width="419" height="60" viewBox="0 0 419 60" fill="none" xmlns="http://www.w3.org/2000/svg">
<path d="M207.953 3.35551C228.817 -0.837535 250.353 -0.773158 271.422 1.7461C280.129 2.87913 289.192 4.02503 296.866 8.63008C301.348 11.2309 304.815 15.9561 304.977 21.265C290.614 21.5611 276.251 21.4109 261.892 21.368C257.603 16.351 250.747 14.7802 244.435 14.4926C235.977 14.2094 227.184 14.8488 219.437 18.5398C212.889 21.647 207.272 27.4022 205.541 34.5909C204.697 37.8655 206.809 41.2517 209.68 42.7324C215.229 45.5692 221.592 45.8997 227.702 46.1272C235.698 46.4491 244.028 44.9512 250.816 40.5093C251.488 40.1273 252.075 39.402 252.932 39.5093C267.454 39.4578 281.98 39.4792 296.502 39.5436C291.501 45.1487 284.851 48.9984 277.926 51.7193C269.245 55.1356 260.024 56.9295 250.811 58.1613C240.587 59.3801 230.291 60.1312 219.994 59.981C206.063 59.9037 191.975 58.9982 178.537 55.0927C172.341 53.1571 166.089 50.1915 162.048 44.9126C158.68 40.7281 158.209 34.6467 160.416 29.8185C163.278 23.4667 168.879 18.8745 174.753 15.4154C185.016 9.5056 196.388 5.73315 207.953 3.35551ZM25.2084 2.0079C40.3043 1.76327 55.4045 2.14953 70.5046 2.08944C67.728 8.36829 64.9085 14.6343 62.1233 20.9131C76.8164 20.9388 91.5095 20.8616 106.203 20.9517C109.078 14.6943 111.756 8.33824 114.635 2.08086C130.151 2.06369 145.663 2.02507 161.179 2.08515C152.759 20.72 144.373 39.3634 135.992 58.0153C122.995 58.2986 109.995 58.1269 96.9985 58.1656C94.5389 58.1913 92.0708 58.2471 89.6327 57.9038C93.0692 50.582 96.3129 43.1702 99.6166 35.7926C84.8807 35.7883 70.1404 35.7883 55.4045 35.7883C52.2079 43.1873 48.9085 50.5434 45.8147 57.981C30.5432 58.3072 15.2716 58.1827 0 58.0969C8.27853 39.3419 16.8784 20.7328 25.2084 2.0079ZM326.745 1.91348H373.554C367.233 16.1106 360.875 30.2863 354.49 44.4577C375.992 44.4706 397.498 44.5221 419 44.5178C416.956 49.0584 414.916 53.5991 412.868 58.1355C375.79 58.1656 338.713 58.1741 301.639 58.1312C309.905 39.3462 318.355 20.6427 326.745 1.91348Z" fill="#006CB7"/>
</svg>
