<svg width="189" height="60" viewBox="0 0 189 60" fill="none" xmlns="http://www.w3.org/2000/svg">
<path d="M54.0937 35.7307C57.2484 22.3271 48.9752 8.89562 35.615 5.73066C22.2548 2.5657 8.86685 10.8657 5.71213 24.2693C2.55741 37.6729 10.8306 51.1043 24.1908 54.2693C37.551 57.4343 50.939 49.1342 54.0937 35.7307Z" fill="#5F259F"/>
<path d="M130.755 44.2517V35.1961C130.755 32.9671 129.921 31.8525 127.838 31.8525C127.005 31.8525 126.033 31.9918 125.478 32.1312V45.3662C125.478 45.7842 125.061 46.2021 124.645 46.2021H121.451C121.034 46.2021 120.617 45.7842 120.617 45.3662V29.9021C120.617 29.3448 121.034 28.9269 121.451 28.7876C123.534 28.091 125.617 27.673 127.838 27.673C132.838 27.673 135.615 30.32 135.615 35.1961V45.5055C135.615 45.9235 135.198 46.3414 134.782 46.3414H132.838C131.588 46.3414 130.755 45.3662 130.755 44.2517ZM143.253 38.8183L143.114 40.0722C143.114 41.744 144.225 42.7192 146.03 42.7192C147.419 42.7192 148.668 42.3013 150.057 41.6047C150.196 41.6047 150.335 41.4654 150.474 41.4654C150.751 41.4654 150.89 41.6047 151.029 41.744C151.168 41.8833 151.446 42.3013 151.446 42.3013C151.723 42.7192 152.001 43.2765 152.001 43.6944C152.001 44.391 151.585 45.0876 151.029 45.3662C149.502 46.2021 147.696 46.6201 145.752 46.6201C143.53 46.6201 141.725 46.0628 140.336 44.9483C138.948 43.6944 138.115 42.0226 138.115 39.9329V34.4995C138.115 30.1807 140.892 27.5337 145.613 27.5337C150.196 27.5337 152.834 30.0414 152.834 34.4995V37.8431C152.834 38.2611 152.418 38.679 152.001 38.679H143.253V38.8183ZM143.114 35.7534H148.391V34.3602C148.391 32.6884 147.419 31.5739 145.752 31.5739C144.086 31.5739 143.114 32.5491 143.114 34.3602V35.7534ZM178.524 38.8183L178.386 40.0722C178.386 41.744 179.496 42.7192 181.302 42.7192C182.69 42.7192 183.94 42.3013 185.329 41.6047C185.468 41.6047 185.607 41.4654 185.745 41.4654C186.023 41.4654 186.162 41.6047 186.301 41.744C186.44 41.8833 186.718 42.3013 186.718 42.3013C186.995 42.7192 187.273 43.2765 187.273 43.6944C187.273 44.391 186.856 45.0876 186.301 45.3662C184.773 46.2021 182.968 46.6201 181.024 46.6201C178.802 46.6201 176.997 46.0628 175.608 44.9483C174.22 43.6944 173.386 42.0226 173.386 39.9329V34.4995C173.386 30.1807 176.164 27.5337 180.885 27.5337C185.468 27.5337 188.106 30.0414 188.106 34.4995V37.8431C188.106 38.2611 187.69 38.679 187.273 38.679H178.524V38.8183ZM178.386 35.7534H183.662V34.3602C183.662 32.6884 182.69 31.5739 181.024 31.5739C179.358 31.5739 178.386 32.5491 178.386 34.3602V35.7534ZM96.7326 46.3414H98.6767C99.0933 46.3414 99.5099 45.9235 99.5099 45.5055V35.1961C99.5099 30.4594 97.0103 27.673 92.8443 27.673C91.5945 27.673 90.2059 27.9517 89.3727 28.2303V23.0756C89.3727 21.9611 88.4006 20.9858 87.2897 20.9858H85.3456C84.929 20.9858 84.5124 21.4038 84.5124 21.8217V45.5055C84.5124 45.9235 84.929 46.3414 85.3456 46.3414H88.5395C88.9561 46.3414 89.3727 45.9235 89.3727 45.5055V32.4098C90.067 32.1312 91.0391 31.9918 91.7334 31.9918C93.8164 31.9918 94.6496 32.9671 94.6496 35.3354V44.391C94.7885 45.3662 95.6216 46.3414 96.7326 46.3414ZM117.701 34.6389V39.7936C117.701 44.1124 114.785 46.7594 109.925 46.7594C105.203 46.7594 102.148 44.1124 102.148 39.7936V34.6389C102.148 30.32 105.065 27.673 109.925 27.673C114.785 27.673 117.701 30.32 117.701 34.6389ZM112.841 34.6389C112.841 32.9671 111.869 31.8525 110.064 31.8525C108.258 31.8525 107.286 32.8277 107.286 34.6389V39.7936C107.286 41.4654 108.258 42.4406 110.064 42.4406C111.869 42.4406 112.841 41.4654 112.841 39.7936V34.6389ZM81.8739 32.2705C81.8739 36.7286 78.5412 39.7936 74.0975 39.7936C72.9865 39.7936 72.0145 39.6543 71.0424 39.2363V45.5055C71.0424 45.9235 70.6258 46.3414 70.2092 46.3414H67.0153C66.5987 46.3414 66.1821 45.9235 66.1821 45.5055V23.3542C66.1821 22.797 66.5987 22.379 67.0153 22.2397C69.0983 21.5431 71.1813 21.1252 73.4031 21.1252C78.4023 21.1252 81.8739 24.1901 81.8739 28.9269V32.2705ZM76.8748 28.6482C76.8748 26.4192 75.3473 25.3047 73.2643 25.3047C72.0145 25.3047 71.1813 25.7226 71.1813 25.7226V34.9175C72.0145 35.3354 72.4311 35.4748 73.4031 35.4748C75.4861 35.4748 77.0136 34.2209 77.0136 32.1312V28.6482H76.8748ZM171.581 32.2705C171.581 36.7286 168.248 39.7936 163.805 39.7936C162.694 39.7936 161.722 39.6543 160.75 39.2363V45.5055C160.75 45.9235 160.333 46.3414 159.916 46.3414H156.723C156.306 46.3414 155.889 45.9235 155.889 45.5055V23.3542C155.889 22.797 156.306 22.379 156.723 22.2397C158.806 21.5431 160.889 21.1252 163.11 21.1252C168.11 21.1252 171.581 24.1901 171.581 28.9269V32.2705ZM166.582 28.6482C166.582 26.4192 165.054 25.3047 162.971 25.3047C161.722 25.3047 160.888 25.7226 160.888 25.7226V34.9175C161.722 35.3354 162.138 35.4748 163.11 35.4748C165.193 35.4748 166.721 34.2209 166.721 32.1312V28.6482H166.582Z" fill="#5F259F"/>
<path d="M41.1868 23.4934C41.1868 22.5182 40.3536 21.6823 39.3815 21.6823H36.0487L28.4111 12.9054C27.7168 12.0695 26.6059 11.7908 25.4949 12.0695L22.8565 12.9054C22.4399 13.0447 22.301 13.6019 22.5788 13.8806L30.9107 21.8216H18.2739C17.8573 21.8216 17.5796 22.1002 17.5796 22.5182V23.9114C17.5796 24.8866 18.4128 25.7225 19.3848 25.7225H21.329V32.4097C21.329 37.4251 23.9674 40.3507 28.4111 40.3507C29.7998 40.3507 30.9107 40.2114 32.2993 39.6541V44.1123C32.2993 45.3661 33.2714 46.3413 34.5212 46.3413H36.4653C36.8819 46.3413 37.2985 45.9234 37.2985 45.5054V25.5832H40.4924C40.909 25.5832 41.1868 25.3045 41.1868 24.8866V23.4934ZM32.2993 35.4746C31.4662 35.8926 30.3552 36.0319 29.522 36.0319C27.3002 36.0319 26.1893 34.9174 26.1893 32.4097V25.7225H32.2993V35.4746Z" fill="white"/>
</svg>
