<svg width="164" height="60" viewBox="0 0 164 60" fill="none" xmlns="http://www.w3.org/2000/svg">
<path fill-rule="evenodd" clip-rule="evenodd" d="M42.7878 15.1944L31.9959 22.8455L21.3955 15.316L10.7808 22.8571L0 15.199L21.3959 0L42.7878 15.1944Z" fill="#FF555F"/>
<path fill-rule="evenodd" clip-rule="evenodd" d="M11.0194 37.5619V22.7563L0 15.2379V45.0788L21.8692 60V44.9636L11.0194 37.5619ZM21.8692 45.7141H32.3283V30.4762H21.8692V45.7141Z" fill="#25A5BD"/>
<path fill-rule="evenodd" clip-rule="evenodd" d="M21.8691 60L43.7383 45.2382V30.4758L21.8691 45.1238V60Z" fill="#1E2C4C"/>
<path fill-rule="evenodd" clip-rule="evenodd" d="M32.7545 38.095L21.8691 30.4542L32.7031 22.8571L43.7383 30.4647L32.7545 38.095Z" fill="#FF555F"/>
<path fill-rule="evenodd" clip-rule="evenodd" d="M65.7027 34.8607C67.9732 34.8607 69.8577 32.9159 69.8577 30.479C69.8577 28.0407 67.9732 26.097 65.7027 26.097C63.4663 26.097 61.5807 28.0407 61.5807 30.478C61.5807 32.9159 63.4652 34.8607 65.7027 34.8607ZM62.0611 38.3476C62.7314 39.6427 64.0736 40.5379 65.6078 40.5379C67.8449 40.5379 69.6345 38.6561 69.6345 36.3416V36.1872L69.5709 36.1584C68.3254 37.3613 66.7258 38.1021 64.9365 38.1021C61.102 38.1021 58.001 34.6775 58.001 30.4805C58.001 26.2528 61.1016 22.8585 64.9365 22.8585C66.7261 22.8585 68.3243 23.5996 69.5709 24.8339L69.6345 24.8015V23.2587H73.2142V36.3423C73.2142 40.4775 70.05 43.8099 65.7673 43.8099C62.8909 43.8099 60.398 42.3291 59.0564 40.0765L62.0611 38.3476ZM85.5515 28.4712L85.5838 28.4093C84.7928 26.9904 83.4017 26.0343 81.7888 26.0343C80.1127 26.0343 78.8158 26.9295 77.9615 28.4093L77.9939 28.4712H85.5515ZM85.1396 33.4371L87.6071 35.8121C86.1839 37.2314 84.1916 38.0949 82.0088 38.0949C77.6453 38.0949 74.1651 34.7016 74.1651 30.4762C74.1651 26.2503 77.5504 22.857 81.7881 22.857C82.7867 22.8554 83.7758 23.0515 84.6985 23.434C85.6212 23.8165 86.4594 24.378 87.1647 25.086C87.8701 25.794 88.4288 26.6347 88.8087 27.5598C89.1886 28.4848 89.3822 29.4759 89.3784 30.4762C89.3784 31.155 89.3148 31.34 89.3148 31.34H77.7082C77.7082 32.9436 79.6373 34.8255 81.851 34.8255C83.1476 34.8255 84.2847 34.2704 85.1396 33.4371ZM94.7449 30.6817V38.0949H91.2802V23.2684H94.7449V25.0743L94.8078 25.1067C95.9829 23.618 97.5616 22.857 99.2007 22.857C105.388 22.857 105.543 28.6228 105.543 30.397V38.0949H102.078V30.6817C102.078 28.9075 102.046 26.1826 98.4583 26.1826C96.417 26.1826 94.7449 28.1786 94.7449 30.6817ZM114.971 26.1599C112.675 26.1599 110.826 28.1426 110.826 30.596C110.826 33.0819 112.675 35.0627 114.971 35.0627C117.204 35.0627 119.086 33.0819 119.086 30.596C119.086 28.1426 117.204 26.1599 114.971 26.1599ZM115.737 38.398C113.919 38.398 112.357 37.6741 111.08 36.3844L111.016 36.4168V43.8103H107.445V23.2677H111.016V24.8083L111.08 24.8407C112.356 23.6144 113.919 22.8588 115.737 22.8588C119.564 22.8588 122.658 26.3198 122.658 30.6302C122.658 34.9399 119.564 38.398 115.737 38.398ZM131.311 34.8248C133.581 34.8248 135.434 32.9123 135.434 30.4762C135.434 28.0389 133.58 26.0952 131.312 26.0952C129.074 26.0952 127.189 28.0389 127.189 30.4758C127.189 32.9123 129.073 34.8248 131.311 34.8248ZM130.545 22.857C132.335 22.857 133.933 23.5982 135.18 24.8314L135.243 24.799V23.2562H138.822V37.6939H135.242V36.2131L135.178 36.1512C133.933 37.3541 132.334 38.0949 130.544 38.0949C126.71 38.0949 123.609 34.7016 123.609 30.4762C123.609 26.2503 126.709 22.857 130.545 22.857ZM154.035 35.8121C153.307 36.54 152.443 37.1164 151.491 37.5082C150.54 37.9 149.521 38.0994 148.492 38.0949C144.17 38.0949 140.724 34.7016 140.724 30.4762C140.724 26.2503 144.17 22.857 148.492 22.857C150.653 22.857 152.626 23.7209 154.035 25.1398L151.561 27.4219C151.17 26.9999 150.694 26.6641 150.166 26.4359C149.638 26.2077 149.068 26.092 148.492 26.0962C146.111 26.0962 144.232 28.0695 144.232 30.4762C144.232 32.8817 146.111 34.8244 148.492 34.8244C149.079 34.8233 149.659 34.7024 150.198 34.4691C150.736 34.2358 151.222 33.8949 151.624 33.4674L154.035 35.8121ZM161.059 26.0178V37.1429H157.472V26.0181H154.986V22.6799H157.472V16.1903H161.058V22.6799H163.544V26.0181L161.059 26.0178Z" fill="#25A5BD"/>
</svg>
